<svg preserveAspectRatio="none" overflow="visible" style="display: block;" width="24" height="24" viewBox="0 0 24 24" fill="none" xmlns="http://www.w3.org/2000/svg">
<g id="Frame">
<path id="Vector" fill-rule="evenodd" clip-rule="evenodd" d="M6.55765 5.38336C6.03283 5.36872 5.76946 5.50269 5.63602 5.63613C5.50257 5.76958 5.3686 6.03294 5.38325 6.55776C5.39797 7.08549 5.56482 7.77947 5.91912 8.60617C6.14697 9.13783 6.44366 9.70421 6.80437 10.2909C7.31145 9.67471 7.86671 9.0623 8.46444 8.46457C9.06217 7.86684 9.67459 7.31157 10.2908 6.80449C9.7041 6.44378 9.13771 6.14709 8.60606 5.91924C7.77935 5.56494 7.08537 5.39809 6.55765 5.38336ZM12 5.52685C11.1069 4.92585 10.227 4.438 9.3939 4.08095C8.42914 3.66748 7.47812 3.40827 6.61343 3.38414C5.74584 3.35993 4.86941 3.57431 4.2218 4.22192C3.5742 4.86952 3.35982 5.74596 3.38403 6.61355C3.40815 7.47823 3.66737 8.42926 4.08083 9.39401C4.43789 10.2271 4.92573 11.107 5.52673 12.0001C4.92572 12.8932 4.43788 13.7731 4.08083 14.6062C3.66736 15.5709 3.40815 16.522 3.38402 17.3867C3.35981 18.2542 3.57419 19.1307 4.2218 19.7783C4.8694 20.4259 5.74584 20.6403 6.61343 20.6161C7.47811 20.5919 8.42914 20.3327 9.39389 19.9193C10.227 19.5622 11.1069 19.0744 12 18.4733C12.8931 19.0743 13.7729 19.5622 14.6061 19.9192C15.5708 20.3327 16.5218 20.5919 17.3865 20.616C18.2541 20.6403 19.1305 20.4259 19.7782 19.7783C20.4258 19.1307 20.6401 18.2542 20.6159 17.3866C20.5918 16.522 20.3326 15.5709 19.9191 14.6062C19.5621 13.773 19.0742 12.8932 18.4732 12.0001C19.0742 11.107 19.5621 10.2272 19.9191 9.39403C20.3326 8.42927 20.5918 7.47825 20.6159 6.61356C20.6401 5.74598 20.4257 4.86954 19.7781 4.22193C19.1305 3.57433 18.2541 3.35995 17.3865 3.38416C16.5218 3.40829 15.5708 3.6675 14.6061 4.08096C13.7729 4.43802 12.8931 4.92585 12 5.52685ZM12 7.99745C11.2943 8.54801 10.5799 9.17758 9.87865 9.87879C9.17745 10.58 8.54789 11.2945 7.99733 12.0001C8.54789 12.7057 9.17745 13.4202 9.87866 14.1214C10.5799 14.8226 11.2943 15.4522 12 16.0027C12.7056 15.4522 13.4201 14.8226 14.1213 14.1214C14.8225 13.4202 15.4521 12.7057 16.0026 12.0001C15.4521 11.2945 14.8225 10.58 14.1213 9.87877C13.4201 9.17757 12.7056 8.54801 12 7.99745ZM17.1956 10.2909C16.6885 9.6747 16.1332 9.06229 15.5355 8.46456C14.9378 7.86683 14.3254 7.31157 13.7092 6.80449C14.2959 6.44378 14.8622 6.1471 15.3939 5.91925C16.2206 5.56495 16.9146 5.39811 17.4423 5.38338C17.9671 5.36873 18.2305 5.5027 18.3639 5.63615C18.4974 5.76959 18.6313 6.03296 18.6167 6.55778C18.602 7.0855 18.4351 7.77949 18.0808 8.60619C17.853 9.13784 17.5563 9.70422 17.1956 10.2909ZM17.1956 13.7093C16.6885 14.3255 16.1332 14.9379 15.5355 15.5356C14.9378 16.1334 14.3254 16.6886 13.7092 17.1957C14.2959 17.5564 14.8622 17.8531 15.3939 18.0809C16.2206 18.4352 16.9146 18.6021 17.4423 18.6168C17.9671 18.6315 18.2305 18.4975 18.3639 18.3641C18.4974 18.2306 18.6313 17.9672 18.6167 17.4424C18.602 16.9147 18.4351 16.2207 18.0808 15.394C17.853 14.8624 17.5563 14.296 17.1956 13.7093ZM10.2908 17.1957C9.67459 16.6886 9.06218 16.1334 8.46444 15.5356C7.86671 14.9379 7.31145 14.3255 6.80437 13.7093C6.44366 14.296 6.14697 14.8624 5.91912 15.394C5.56481 16.2207 5.39797 16.9147 5.38324 17.4424C5.3686 17.9673 5.50257 18.2306 5.63601 18.3641C5.76945 18.4975 6.03282 18.6315 6.55764 18.6168C7.08536 18.6021 7.77935 18.4353 8.60605 18.081C9.13771 17.8531 9.70409 17.5564 10.2908 17.1957Z" fill="#54A0FF"/>
</g>
</svg>
